<?xml version="1.0" encoding="UTF-8" standalone="no" ?>
<!DOCTYPE svg PUBLIC "-//W3C//DTD SVG 1.1//EN" "http://www.w3.org/Graphics/SVG/1.1/DTD/svg11.dtd">
<svg xmlns="http://www.w3.org/2000/svg" xmlns:xlink="http://www.w3.org/1999/xlink" version="1.1" width="100" height="100" viewBox="0 0 100 100" xml:space="preserve">
<desc>Created with Fabric.js 5.2.4</desc>
<defs>
</defs>
<rect x="0" y="0" width="100%" height="100%" fill="transparent"></rect>
<g transform="matrix(0 0 0 0 0 0)" id="1e32cf23-5e3d-48d5-ac28-98ee3919879b"  >
</g>
<g transform="matrix(1 0 0 1 50 50)" id="84968a77-c001-4520-ae30-8be06ae106fb"  >
<rect style="stroke: none; stroke-width: 1; stroke-dasharray: none; stroke-linecap: butt; stroke-dashoffset: 0; stroke-linejoin: miter; stroke-miterlimit: 4; fill: rgb(255,255,255); fill-rule: nonzero; opacity: 1; visibility: hidden;" vector-effect="non-scaling-stroke"  x="-50" y="-50" rx="0" ry="0" width="100" height="100" />
</g>
<g transform="matrix(0.04 0 0 0.04 50 70.7)"  >
<path style="stroke: rgb(0,0,0); stroke-width: 0; stroke-dasharray: none; stroke-linecap: butt; stroke-dashoffset: 0; stroke-linejoin: miter; stroke-miterlimit: 4; fill: rgb(255,255,255); fill-rule: nonzero; opacity: 1;" vector-effect="non-scaling-stroke"  transform=" translate(-255.99, -256.04)" d="M 416 208 C 416 253.9 401.1 296.3 376 330.7 L 502.6 457.4 C 515.1 469.9 515.1 490.2 502.6 502.7 C 490.1 515.2 469.8 515.2 457.3 502.7 L 330.7 376 C 296.3 401.2 253.89999999999998 416 208 416 C 93.1 416 0 322.9 0 208 C 0 93.10000000000002 93.1 0 208 0 C 322.9 0 416 93.1 416 208 z M 208 352 C 287.5290039756343 352 352 287.5290039756343 352 208 C 352 128.47099602436575 287.5290039756343 64 208 64 C 128.47099602436575 64 64 128.47099602436575 64 208 C 64 287.5290039756343 128.47099602436575 352 208 352 z" stroke-linecap="round" />
</g>
<g transform="matrix(0.48 0 0 0.48 49.5 70.53)"  >
<path style="stroke: rgb(255,255,255); stroke-width: 1; stroke-dasharray: none; stroke-linecap: butt; stroke-dashoffset: 0; stroke-linejoin: miter; stroke-miterlimit: 4; fill: rgb(255,255,255); fill-rule: nonzero; opacity: 1;" vector-effect="non-scaling-stroke"  transform=" translate(-50, -50)" d="M 90.375 90.375 L 9.625 90.375 L 9.625 9.625 L 90.375 9.625 L 90.375 90.375 z M 11.625 88.375 L 88.375 88.375 L 88.375 11.625 L 11.625 11.625 L 11.625 88.375 z" stroke-linecap="round" />
</g>
</svg>